<?xml version="1.0" encoding="UTF-8" standalone="no"?>
<svg
   xmlns:dc="http://purl.org/dc/elements/1.1/"
   xmlns:cc="http://creativecommons.org/ns#"
   xmlns:rdf="http://www.w3.org/1999/02/22-rdf-syntax-ns#"
   xmlns:svg="http://www.w3.org/2000/svg"
   xmlns="http://www.w3.org/2000/svg"
   xmlns:sodipodi="http://sodipodi.sourceforge.net/DTD/sodipodi-0.dtd"
   xmlns:inkscape="http://www.inkscape.org/namespaces/inkscape"
   width="370mm"
   height="185.03969mm"
   viewBox="0 0 369.99999 185.03969"
   version="1.1"
   id="svg8"
   inkscape:version="1.0.1 (3bc2e813f5, 2020-09-07)"
   sodipodi:docname="ace-of-spades.svg">
  <defs
     id="defs2">
    </defs>

  <g
     inkscape:label="Layer 1"
     inkscape:groupmode="layer"
     id="layer1"
     svg:path="M458.915 307.705c0 62.63-54 91.32-91.34 91.34-41.64 0-73.1-18.86-91.83-34.26 2.47 50.95 14.53 87.35 68.65 116h-176.79c54.12-28.65 66.18-65.05 68.65-116-18.73 15.39-50.2 34.28-91.83 34.26-37.29 0-91.34-28.71-91.34-91.34 0-114.47 80.64-83.32 202.91-276.49 122.28 193.17 202.92 162.03 202.92 276.49z"
     transform="translate(-3.0028691,-53.423429)">
     
    <g><path
       d="M480.25 156.355c0 161.24-224.25 324.43-224.25 324.43S31.75 317.595 31.75 156.355c0-91.41 70.63-125.13 107.77-125.13 77.65 0 116.48 65.72 116.48 65.72s38.83-65.73 116.48-65.73c37.14.01 107.77 33.72 107.77 125.14z"
       id="spade" transform="translate(230 110)"/>
       <animateTransform attributeType="XML" attributeName="transform"
           type="scale" from="0.4" to="0.35" dur="2s"
           additive="sum"
           repeatCount="indefinite" />
      <animateTransform attributeType="XML" attributeName="transform"
           type="translate" from="0 0" to="65 50" dur="2s"
           additive="sum"
           repeatCount="indefinite"/>
      <animate attributeType="XML" attributeName="fill"
           from="pink" to="#ddd" dur="2s"
           repeatCount="indefinite"/>
      </g>
    <g
       aria-label="Ab"
       id="text857"
       style="font-style:normal;font-weight:normal;font-size:10.5833px;line-height:1.25;font-family:sans-serif;fill:#bbbbbb;fill-opacity:0.98039216;stroke:none;stroke-width:0.264583"
       transform="translate(81.934076)">
      <path
         d="m 14.261861,73.818756 q 3.612442,-9.341549 5.305774,-13.631323 0.112889,-0.225778 0.479777,-0.508 0.395111,-0.282222 0.592666,-0.282222 0.05645,0 0.08467,0.02822 0.02822,0.02822 0.05644,0.02822 l 5.616218,14.731988 q 0.620889,1.636888 0.705555,1.806221 0.169334,0.423333 0.874889,0.705555 0.705555,0.254 1.015999,0.254 0.197555,0.282222 0.02822,0.790221 -2.765776,-0.141111 -3.019775,-0.141111 -0.02822,0 -3.189109,0.141111 -0.112889,-0.112888 -0.112889,-0.39511 0.02822,-0.282222 0.141111,-0.395111 1.100666,0 1.523999,-0.366889 0.112889,-0.112889 0.112889,-0.395111 0,-0.366888 -0.479778,-1.693332 -0.451555,-1.354665 -0.90311,-2.511775 l -0.479778,-1.157111 q -0.08467,-0.112889 -0.169333,-0.112889 -0.366888,-0.02822 -2.737553,-0.02822 -1.721554,0 -2.963331,0.08467 l -0.141111,0.08467 q -0.790222,2.031999 -1.241777,3.358442 -0.395111,1.128888 -0.395111,1.947332 0,0.423333 0.733777,0.620889 0.733778,0.169333 1.185333,0.169333 0.05644,0.05644 0.08467,0.366888 0.02822,0.310445 -0.02822,0.423333 -0.395111,-0.02822 -0.874888,-0.05644 -0.451555,-0.02822 -0.874888,-0.05644 -0.395111,-0.02822 -0.931333,-0.02822 -0.564444,0 -1.015999,0.02822 -0.423333,0.02822 -0.959555,0.05644 -0.507999,0.02822 -0.987777,0.05644 -0.05644,-0.05644 -0.05644,-0.338666 0,-0.310444 0.05644,-0.451555 0.338667,0 0.903111,-0.141111 0.564444,-0.141111 0.761999,-0.395111 0.508,-0.649111 1.298221,-2.596442 z m 5.39044,-11.091325 -2.511775,6.716883 q 0,0.112889 0.05644,0.112889 1.41111,0.05644 2.483554,0.05644 1.044221,0 2.31422,-0.08467 l 0.08467,-0.141111 z"
         style="font-style:normal;font-variant:normal;font-weight:normal;font-stretch:normal;font-size:28.2222px;font-family:Amiri;-inkscape-font-specification:Amiri;fill:#bbbbbb;fill-opacity:0.98039216;stroke-width:0.264583"
         id="path880" />
    </g>
    <g
       aria-label="A"
       id="text857-3"
       style="font-style:normal;font-weight:normal;font-size:10.5833px;line-height:1.25;font-family:sans-serif;fill:#bbbbbb;fill-opacity:0.98039216;stroke:none;stroke-width:0.264583"
       transform="translate(84.49683,5.3510592)">
      <path
         d="m 188.40206,227.12812 q 3.61246,-9.34158 5.3058,-13.63137 0.11288,-0.22578 0.47977,-0.508 0.39512,-0.28222 0.59267,-0.28222 0.0564,0 0.0847,0.0282 0.0282,0.0282 0.0564,0.0282 l 5.61624,14.73204 q 0.62089,1.63689 0.70556,1.80623 0.16933,0.42333 0.87489,0.70556 0.70556,0.254 1.016,0.254 0.19756,0.28222 0.0282,0.79022 -2.76579,-0.14111 -3.01979,-0.14111 -0.0282,0 -3.18912,0.14111 -0.11289,-0.11289 -0.11289,-0.39511 0.0282,-0.28222 0.14111,-0.39511 1.10067,0 1.52401,-0.36689 0.11289,-0.11289 0.11289,-0.39512 0,-0.36689 -0.47978,-1.69333 -0.45156,-1.35467 -0.90312,-2.51179 l -0.47978,-1.15711 q -0.0847,-0.11289 -0.16933,-0.11289 -0.36689,-0.0282 -2.73756,-0.0282 -1.72156,0 -2.96334,0.0847 l -0.14112,0.0847 q -0.79022,2.03201 -1.24178,3.35845 -0.39511,1.1289 -0.39511,1.94734 0,0.42334 0.73378,0.62089 0.73378,0.16934 1.18534,0.16934 0.0564,0.0564 0.0847,0.36689 0.0282,0.31044 -0.0282,0.42333 -0.39511,-0.0282 -0.87489,-0.0564 -0.45156,-0.0282 -0.87489,-0.0565 -0.39511,-0.0282 -0.93134,-0.0282 -0.56444,0 -1.016,0.0282 -0.42333,0.0282 -0.95956,0.0565 -0.508,0.0282 -0.98778,0.0564 -0.0564,-0.0564 -0.0564,-0.33867 0,-0.31044 0.0564,-0.45155 0.33867,0 0.90312,-0.14111 0.56444,-0.14112 0.762,-0.39512 0.508,-0.64911 1.29822,-2.59645 z m 5.39046,-11.09136 -2.51178,6.71691 q 0,0.11288 0.0564,0.11288 1.41112,0.0565 2.48356,0.0565 1.04423,0 2.31423,-0.0847 l 0.0847,-0.14111 z"
         style="font-style:normal;font-variant:normal;font-weight:normal;font-stretch:normal;font-size:28.2223px;font-family:Amiri;-inkscape-font-specification:Amiri;fill:#bbbbbb;fill-opacity:0.98039216;stroke-width:0.264583"
         id="path877" />
    </g>
    <path
       style="fill:#aaaaaa;fill-opacity:0.98039216;stroke:#000000;stroke-width:0.026584px;stroke-linecap:butt;stroke-linejoin:miter;stroke-opacity:1"
       d="m 339.20459,69.833754 c 0,16.20064 -22.53159,32.597196 -22.53159,32.597196 0,0 -22.53159,-16.396556 -22.53159,-32.597196 0,-9.18445 7.09658,-12.57248 10.82823,-12.57248 7.80191,0 11.70336,6.60324 11.70336,6.60324 0,0 3.90146,-6.60425 11.70337,-6.60425 3.73165,10e-4 10.82822,3.38803 10.82822,12.57349 z"
       id="path883" />
    <path
       style="fill:#aaaaaa;fill-opacity:0.98039216;stroke:#000000;stroke-width:0.00314159px;stroke-linecap:butt;stroke-linejoin:miter;stroke-opacity:1"
       d="m 338.43122,145.35187 c -7.87623,5.16784 -15.66914,15.52431 -20.06271,27.50063 -4.39356,-11.97632 -12.18533,-22.33279 -20.0627,-27.50063 7.87623,-5.16784 15.66914,-15.52432 20.0627,-27.50064 4.39357,11.97632 12.18534,22.3328 20.06271,27.50064 z"
       id="path883-4" />
    <path
       style="fill:#aaaaaa;fill-opacity:0.98039216;stroke:#000000;stroke-width:0.00028353px;stroke-linecap:butt;stroke-linejoin:miter;stroke-opacity:1"
       d="m 338.98992,216.16013 a 9.4268503,9.4268503 0 0 1 -18.25442,3.30955 c -0.007,6.20304 0.39079,10.33028 6.27704,13.44759 h -16.02609 c 5.88625,-3.11641 6.28426,-7.24274 6.27704,-13.44759 a 9.4232402,9.4232402 0 1 1 -5.98734,-12.29958 9.4268503,9.4268503 0 1 1 15.44578,0 9.4313628,9.4313628 0 0 1 12.26799,8.99003 z"
       id="path883-4-3" />
    <path
       style="fill:#aaaaaa;fill-opacity:0.98039216;stroke:#000000;stroke-width:0.026584px;stroke-linecap:butt;stroke-linejoin:miter;stroke-opacity:1"
       d="m 84.152285,69.917609 c 0,16.200641 -22.53159,32.597191 -22.53159,32.597191 0,0 -22.53159,-16.39655 -22.53159,-32.597191 0,-9.18445 7.09658,-12.57248 10.82823,-12.57248 7.80191,0 11.70336,6.60324 11.70336,6.60324 0,0 3.90146,-6.60425 11.70337,-6.60425 3.73165,10e-4 10.82822,3.38803 10.82822,12.57349 z"
       id="path883-8" />
    <path
       style="fill:#aaaaaa;fill-opacity:0.98039216;stroke:#000000;stroke-width:0.00314158px;stroke-linecap:butt;stroke-linejoin:miter;stroke-opacity:1"
       d="m 83.378915,145.43573 c -7.87623,5.16784 -15.66914,15.52431 -20.06271,27.50063 -4.39356,-11.97632 -12.18533,-22.33279 -20.0627,-27.50063 7.87623,-5.16784 15.66914,-15.52432 20.0627,-27.50064 4.39357,11.97632 12.18534,22.3328 20.06271,27.50064 z"
       id="path883-4-6" />
    <path
       style="fill:#aaaaaa;fill-opacity:0.98039216;stroke:#000000;stroke-width:0.00028353px;stroke-linecap:butt;stroke-linejoin:miter;stroke-opacity:1"
       d="m 83.937615,216.24399 a 9.4268504,9.4268504 0 0 1 -18.25442,3.30955 c -0.007,6.20304 0.39079,10.33028 6.27704,13.44759 h -16.02609 c 5.88625,-3.11641 6.28426,-7.24274 6.27704,-13.44759 a 9.4232402,9.4232402 0 1 1 -5.98734,-12.29958 9.4268504,9.4268504 0 1 1 15.44578,0 9.4313629,9.4313629 0 0 1 12.26799,8.99003 z"
       id="path883-4-3-7" />
    <path
       style="fill:#888888;fill-opacity:0.98039216;stroke:#000000;stroke-width:0.0130539px;stroke-linecap:butt;stroke-linejoin:miter;stroke-opacity:1"
       d="m 365.91542,65.838647 c 0,7.955206 -11.06397,16.006606 -11.06397,16.006606 0,0 -11.06397,-8.0514 -11.06397,-16.006606 0,-4.509954 3.48472,-6.173621 5.31712,-6.173621 3.83107,0 5.74685,3.242471 5.74685,3.242471 0,0 1.91578,-3.242967 5.74685,-3.242967 1.8324,4.91e-4 5.31712,1.663667 5.31712,6.174117 z"
       id="path883-0" />
    <path
       style="fill:#888888;fill-opacity:0.98039216;stroke:#000000;stroke-width:0.00154265px;stroke-linecap:butt;stroke-linejoin:miter;stroke-opacity:1"
       d="m 365.53566,102.92125 c -3.86757,2.53763 -7.69422,7.62309 -9.85164,13.50397 -2.15743,-5.88088 -5.98352,-10.96634 -9.85164,-13.50397 3.86756,-2.53763 7.69421,-7.623097 9.85164,-13.503987 2.15742,5.88089 5.98351,10.966357 9.85164,13.503987 z"
       id="path883-4-8" />
    <path
       style="fill:#888888;fill-opacity:0.98039216;stroke:#000000;stroke-width:0.00013923px;stroke-linecap:butt;stroke-linejoin:miter;stroke-opacity:1"
       d="m 365.81,137.69111 a 4.6289836,4.6289836 0 0 1 -8.96369,1.62512 c -0.003,3.04596 0.19189,5.07261 3.08229,6.60334 h -7.86949 c 2.8904,-1.53029 3.08584,-3.55649 3.08229,-6.60334 a 4.6272109,4.6272109 0 1 1 -2.94003,-6.03961 4.6289836,4.6289836 0 1 1 7.58453,0 4.6311995,4.6311995 0 0 1 6.0241,4.41449 z"
       id="path883-4-3-1" />
    <path
       style="fill:#888888;fill-opacity:0.98039216;stroke:#000000;stroke-width:0.0130539px;stroke-linecap:butt;stroke-linejoin:miter;stroke-opacity:1"
       d="m 366.82727,154.14242 c 0,7.95521 -11.06397,16.00661 -11.06397,16.00661 0,0 -11.06397,-8.0514 -11.06397,-16.00661 0,-4.50995 3.48472,-6.17362 5.31712,-6.17362 3.83107,0 5.74685,3.24247 5.74685,3.24247 0,0 1.91578,-3.24297 5.74685,-3.24297 1.8324,4.9e-4 5.31712,1.66367 5.31712,6.17412 z"
       id="path883-0-9" />
    <path
       style="fill:#888888;fill-opacity:0.98039216;stroke:#000000;stroke-width:0.00154265px;stroke-linecap:butt;stroke-linejoin:miter;stroke-opacity:1"
       d="m 366.44751,191.22503 c -3.86757,2.53762 -7.69422,7.62309 -9.85164,13.50397 -2.15743,-5.88088 -5.98352,-10.96635 -9.85164,-13.50397 3.86756,-2.53764 7.69421,-7.6231 9.85164,-13.50399 2.15742,5.88089 5.98351,10.96635 9.85164,13.50399 z"
       id="path883-4-8-8" />
    <path
       style="fill:#888888;fill-opacity:0.98039216;stroke:#000000;stroke-width:0.00013923px;stroke-linecap:butt;stroke-linejoin:miter;stroke-opacity:1"
       d="m 366.72185,225.99489 a 4.6289836,4.6289836 0 0 1 -8.96369,1.62512 c -0.003,3.04596 0.19189,5.07261 3.08229,6.60334 h -7.86949 c 2.8904,-1.53029 3.08584,-3.55649 3.08229,-6.60334 a 4.6272109,4.6272109 0 1 1 -2.94003,-6.03961 4.6289836,4.6289836 0 1 1 7.58453,0 4.6311995,4.6311995 0 0 1 6.0241,4.41449 z"
       id="path883-4-3-1-1" />
    <path
       style="fill:#888888;fill-opacity:0.98039216;stroke:#000000;stroke-width:0.0130539px;stroke-linecap:butt;stroke-linejoin:miter;stroke-opacity:1"
       d="m 30.493187,65.793331 c 0,7.9552 -11.06397,16.0066 -11.06397,16.0066 0,0 -11.06397,-8.0514 -11.06397,-16.0066 0,-4.50996 3.48472,-6.17362 5.31712,-6.17362 3.83107,0 5.74685,3.24247 5.74685,3.24247 0,0 1.91578,-3.24297 5.74685,-3.24297 1.8324,4.9e-4 5.31712,1.66367 5.31712,6.17412 z"
       id="path883-0-6" />
    <path
       style="fill:#888888;fill-opacity:0.98039216;stroke:#000000;stroke-width:0.00154265px;stroke-linecap:butt;stroke-linejoin:miter;stroke-opacity:1"
       d="m 30.113427,102.87593 c -3.86757,2.53763 -7.69422,7.6231 -9.85164,13.50398 -2.15743,-5.88088 -5.98352,-10.96635 -9.85164,-13.50398 3.86756,-2.53763 7.69421,-7.623099 9.85164,-13.503989 2.15742,5.88089 5.98351,10.966359 9.85164,13.503989 z"
       id="path883-4-8-4" />
    <path
       style="fill:#888888;fill-opacity:0.98039216;stroke:#000000;stroke-width:0.00013923px;stroke-linecap:butt;stroke-linejoin:miter;stroke-opacity:1"
       d="m 30.387767,137.6458 a 4.6289836,4.6289836 0 0 1 -8.96369,1.62512 c -0.003,3.04596 0.19189,5.07261 3.08229,6.60334 h -7.86949 c 2.8904,-1.53029 3.08584,-3.55649 3.08229,-6.60334 a 4.6272109,4.6272109 0 1 1 -2.94003,-6.03961 4.6289836,4.6289836 0 1 1 7.58453,0 4.6311995,4.6311995 0 0 1 6.0241,4.41449 z"
       id="path883-4-3-1-8" />
    <path
       style="fill:#888888;fill-opacity:0.98039216;stroke:#000000;stroke-width:0.0130539px;stroke-linecap:butt;stroke-linejoin:miter;stroke-opacity:1"
       d="m 31.405037,154.09711 c 0,7.95521 -11.06397,16.00661 -11.06397,16.00661 0,0 -11.06397,-8.0514 -11.06397,-16.00661 0,-4.50995 3.48472,-6.17362 5.31712,-6.17362 3.83107,0 5.74685,3.24247 5.74685,3.24247 0,0 1.91578,-3.24297 5.74685,-3.24297 1.8324,5.2e-4 5.31712,1.66367 5.31712,6.17412 z"
       id="path883-0-9-5" />
    <path
       style="fill:#888888;fill-opacity:0.98039216;stroke:#000000;stroke-width:0.00154265px;stroke-linecap:butt;stroke-linejoin:miter;stroke-opacity:1"
       d="m 31.025277,191.17972 c -3.86757,2.53762 -7.69422,7.62309 -9.85164,13.50397 -2.15743,-5.88088 -5.98352,-10.96635 -9.85164,-13.50397 3.86756,-2.53764 7.69421,-7.6231 9.85164,-13.50399 2.15742,5.88089 5.98351,10.96635 9.85164,13.50399 z"
       id="path883-4-8-8-0" />
    <path
       style="fill:#888888;fill-opacity:0.98039216;stroke:#000000;stroke-width:0.00013923px;stroke-linecap:butt;stroke-linejoin:miter;stroke-opacity:1"
       d="m 31.299617,225.94958 a 4.6289836,4.6289836 0 0 1 -8.96369,1.62512 c -0.003,3.04596 0.19189,5.07261 3.08229,6.60334 h -7.86949 c 2.8904,-1.53029 3.08584,-3.55649 3.08229,-6.60334 a 4.6272109,4.6272109 0 1 1 -2.94003,-6.03961 4.6289836,4.6289836 0 1 1 7.58453,0 4.6311995,4.6311995 0 0 1 6.0241,4.41449 z"
       id="path883-4-3-1-1-1" />
  </g>
</svg>
